<?xml version="1.0" encoding="utf-8"?>
<!-- Generator: Adobe Illustrator 21.0.0, SVG Export Plug-In . SVG Version: 6.00 Build 0)  -->
<svg version="1.1" id="Layer_1" xmlns="http://www.w3.org/2000/svg" xmlns:xlink="http://www.w3.org/1999/xlink" x="0px" y="0px"
	 viewBox="0 0 113.4 113.4" style="enable-background:new 0 0 113.4 113.4;" xml:space="preserve">
<g id="exwOVr.tif">
	<g>
		<path d="M2,68.9c0.7-2,2.1-2.6,4.1-2.6c3.4,0.1,6.7,0.1,10.1,0c4-0.1,7.5,0.6,9.8,3.9c2.2-1.2,4.3-2.6,6.5-3.5
			c7.9-3,15.4-1.9,22.1,3.3c2.4,1.9,4.9,2.9,8,2.8c3.9-0.1,7.8,0.1,11.7-0.1c5-0.2,8.7,1.8,10.8,6.9c0.3-0.4,0.5-0.8,0.7-1
			c2.7-2.9,5.4-5.9,8.2-8.8c2.9-3,6.3-4.2,10.3-2.9c3.6,1.2,5.7,3.8,6.5,7.5c0,0.2,0.1,0.5,0.2,0.7c0,0.7,0,1.4,0,2.1
			c-0.5,2.1-1.4,3.9-2.7,5.6c-4.7,6.2-9.4,12.5-14.1,18.7c-4.8,6.4-11.2,9.6-19.2,9.6c-8.1,0-16.1-0.1-24.2,0
			c-8.4,0.1-16.6-0.7-24.6-3.1c-0.3-0.1-0.9,0.1-1.2,0.3c-2.1,2-4.5,2.8-7.4,2.8c-3.9-0.1-7.8-0.1-11.7,0c-2,0-3.4-0.7-4-2.6
			C2,95.4,2,82.2,2,68.9z M28,101.9c6.5,1.9,13.1,2.9,19.8,2.9c9.1,0,18.2,0,27.3,0c5.9,0,10.6-2.3,14.2-7.1
			c3.8-5.1,7.6-10.2,11.4-15.3c1.1-1.5,2.3-3,3.4-4.5c1.1-1.6,0.8-3.3-0.5-4.4c-1.3-1.1-3.1-0.9-4.4,0.4c-0.2,0.2-0.4,0.4-0.6,0.6
			c-4.3,4.7-8.7,9.3-13,14c-2.1,2.3-4.7,3.5-7.8,3.5c-8,0-16.1,0-24.1,0c-2.1,0-3.6-1.3-3.6-3.2c0-1.9,1.4-3.1,3.5-3.2
			c2.2,0,4.3,0,6.5,0c5.2,0,10.4,0,15.6,0c1.6,0,2.8-0.7,3.3-2.1c0.8-2.2-0.8-4.3-3.2-4.3c-4.3,0-8.5-0.1-12.8,0
			c-4.7,0.2-8.7-1.3-12.3-4.3c-3.8-3.1-8.3-4-13.1-3.1c-3.5,0.7-6.3,2.6-8.8,5c-0.3,0.3-0.6,0.9-0.6,1.3c-0.1,3,0,6,0,9.1
			C28,92.1,28,97,28,101.9z M8.4,104.8c3.3,0,6.4,0,9.6,0c2.4,0,3.6-1.3,3.6-3.6c0-8.2,0-16.5,0-24.7c0-2.4-1.3-3.6-3.6-3.6
			c-2.9,0-5.8,0-8.6,0c-0.3,0-0.6,0-0.9,0.1C8.4,83.5,8.4,94,8.4,104.8z"/>
		<path d="M76,2c0.8,0.2,1.6,0.3,2.4,0.5c7.6,2,13.1,8.2,14.3,16c1,6.3-0.6,12-4.1,17.3c-2.4,3.6-5.3,6.8-8.6,9.6
			c-6.5,5.7-13.1,11.4-19.7,17c-1.5,1.3-3.1,1.3-4.5,0c-7.2-6.2-14.4-12.4-21.4-18.7c-3.9-3.5-7.1-7.5-9.3-12.3
			c-4.1-8.8-1.7-19.6,5.8-25.6c2.5-2,5.4-3.2,8.5-3.6c0.3,0,0.5-0.1,0.8-0.2c1.3,0,2.6,0,3.8,0c0.2,0.1,0.4,0.2,0.6,0.2
			c3.3,0.5,6.3,1.7,8.8,4c1.7,1.5,3.2,3.3,4.8,5c0.1-0.1,0.3-0.4,0.5-0.7c2.2-3.1,4.9-5.7,8.5-7.1c1.6-0.6,3.3-0.9,5-1.4
			C73.4,2,74.7,2,76,2z M58,55.9c0.1-0.1,0.3-0.1,0.3-0.2c5.9-5.1,11.8-10.1,17.6-15.2c3-2.7,5.8-5.7,7.9-9.1
			c2.7-4.4,3.6-9.1,1.9-14.1c-1.7-4.9-5-8.1-10.2-8.8c-4.9-0.7-8.6,1.4-11.3,5.3c-1.1,1.5-1.8,3.3-2.7,4.9c-0.2,0.4-0.3,0.9-0.5,1.4
			c-0.6,1.3-1.5,1.9-2.9,1.9c-1.4,0-2.3-0.7-2.9-1.9c-1-2-1.8-4.1-3-6c-4.2-6.7-12.9-7.8-18.3-2.4c-3.8,3.8-4.9,8.5-4,13.6
			c0.8,4.3,3.1,7.8,6.1,10.8c4.1,4.1,8.4,7.9,12.6,11.8C51.7,50.7,54.9,53.3,58,55.9z"/>
	</g>
</g>
</svg>
